<svg width="65" height="65" viewBox="0 0 65 65" fill="none" xmlns="http://www.w3.org/2000/svg">
<rect width="65" height="65" rx="10" fill="#AFB1B3"/>
<path d="M32.7429 32.2682C35.4398 32.2682 37.7748 31.3188 39.6832 29.4456C41.591 27.5728 42.5585 25.2812 42.5585 22.6338C42.5585 19.9873 41.5913 17.6954 39.6829 15.822C37.7745 13.9494 35.4395 13 32.7429 13C30.0457 13 27.711 13.9494 25.8029 15.8223C23.8948 17.6951 22.9272 19.987 22.9272 22.6338C22.9272 25.2812 23.8948 27.5731 25.8029 29.4459C27.7116 31.3185 30.0466 32.2682 32.7429 32.2682ZM27.4918 17.4797C28.9559 16.0426 30.6734 15.3441 32.7429 15.3441C34.812 15.3441 36.5299 16.0426 37.9943 17.4797C39.4584 18.9171 40.1704 20.6031 40.1704 22.6338C40.1704 24.665 39.4584 26.3508 37.9943 27.7882C36.5299 29.2256 34.812 29.9241 32.7429 29.9241C30.674 29.9241 28.9565 29.2253 27.4918 27.7882C26.0274 26.3511 25.3154 24.665 25.3154 22.6338C25.3154 20.6031 26.0274 18.9171 27.4918 17.4797Z" fill="#3B3C3D"/>
<path d="M49.9176 43.7581C49.8626 42.9786 49.7513 42.1284 49.5874 41.2306C49.422 40.326 49.209 39.4709 48.9541 38.6894C48.6904 37.8816 48.3326 37.0839 47.8895 36.3194C47.4303 35.5259 46.8905 34.835 46.2849 34.2665C45.6515 33.6717 44.8761 33.1935 43.9794 32.8447C43.0858 32.4977 42.0956 32.3219 41.0363 32.3219C40.6203 32.3219 40.2179 32.4894 39.441 32.986C38.9628 33.2921 38.4034 33.6461 37.7791 34.0376C37.2453 34.3715 36.5221 34.6843 35.6288 34.9675C34.7573 35.2443 33.8724 35.3846 32.9988 35.3846C32.1257 35.3846 31.2408 35.2443 30.3687 34.9675C29.4764 34.6846 28.7529 34.3718 28.22 34.0379C27.6016 33.65 27.0419 33.296 26.5566 32.9857C25.7802 32.4891 25.3779 32.3216 24.9619 32.3216C23.9023 32.3216 22.9123 32.4977 22.019 32.845C21.123 33.1932 20.3472 33.6714 19.7133 34.2668C19.1076 34.8356 18.5679 35.5262 18.1089 36.3194C17.6665 37.0839 17.3083 37.8813 17.0447 38.6897C16.79 39.4713 16.5771 40.326 16.4117 41.2306C16.2475 42.1272 16.1365 42.9777 16.0815 43.759C16.0274 44.5228 16 45.3178 16 46.121C16 48.209 16.6762 49.8994 18.0098 51.1461C19.3268 52.3762 21.0692 53 23.1887 53H42.8113C44.9302 53 46.6726 52.3762 47.9899 51.1461C49.3238 49.9003 50 48.2094 50 46.1207C49.9997 45.3148 49.972 44.5198 49.9176 43.7581ZM46.3433 49.4478C45.4731 50.2607 44.3177 50.6559 42.811 50.6559H23.1887C21.6817 50.6559 20.5263 50.2607 19.6564 49.4481C18.8029 48.6506 18.3882 47.5621 18.3882 46.121C18.3882 45.3715 18.4133 44.6315 18.4637 43.921C18.5128 43.224 18.6133 42.4583 18.7622 41.6447C18.9092 40.8412 19.0964 40.0871 19.319 39.4044C19.5326 38.7498 19.824 38.1016 20.1853 37.4772C20.5301 36.8821 20.9268 36.3716 21.3646 35.9602C21.774 35.5754 22.2902 35.2604 22.8983 35.0242C23.4608 34.8057 24.0929 34.6861 24.779 34.6681C24.8627 34.7117 25.0116 34.795 25.2529 34.9495C25.7438 35.2635 26.3097 35.6218 26.9353 36.0139C27.6404 36.4552 28.5489 36.8538 29.6343 37.1977C30.744 37.5499 31.8757 37.7287 32.9991 37.7287C34.1224 37.7287 35.2545 37.5499 36.3635 37.198C37.4498 36.8535 38.358 36.4552 39.0641 36.0133C39.7043 35.6117 40.2543 35.2638 40.7452 34.9495C40.9865 34.7953 41.1355 34.7117 41.2191 34.6681C41.9056 34.6861 42.5377 34.8057 43.1004 35.0242C43.7083 35.2604 44.2244 35.5757 44.6339 35.9602C45.0717 36.3713 45.4684 36.8818 45.8132 37.4775C46.1748 38.1016 46.4664 38.7501 46.6797 39.4041C46.9026 40.0877 47.0901 40.8415 47.2369 41.6444C47.3855 42.4595 47.4862 43.2255 47.5354 43.9213V43.9219C47.586 44.6296 47.6115 45.3694 47.6118 46.121C47.6115 47.5624 47.1968 48.6506 46.3433 49.4478Z" fill="#3B3C3D"/>
</svg>
