<svg
  width="65"
  height="65"
  viewBox="0 0 65 65"
  fill="none"
  xmlns="http://www.w3.org/2000/svg"
>
<rect width="65" height="65" rx="10" fill="#AFB1B3" />
<path
    d="M32.7429 32.268C35.4398 32.268 37.7751 31.3186 39.6831 29.4455C41.5912 27.5726 42.5585 25.2811 42.5585 22.6337C42.5585 19.9873 41.5912 17.6954 39.6828 15.8219C37.7744 13.9494 35.4394 13 32.7429 13C30.0457 13 27.711 13.9494 25.8029 15.8222C23.8948 17.6951 22.9272 19.9869 22.9272 22.6337C22.9272 25.2811 23.8948 27.5729 25.8032 29.4458C27.7116 31.3183 30.0466 32.268 32.7429 32.268Z"
    fill="#17191A"
  />
<path
    d="M49.9176 43.7578C49.8626 42.9784 49.7513 42.1282 49.5874 41.2304C49.422 40.3258 49.209 39.4707 48.9541 38.6892C48.6907 37.8814 48.3326 37.0837 47.8898 36.3192C47.4303 35.5258 46.8905 34.8349 46.2849 34.2663C45.6515 33.6715 44.8761 33.1933 43.9794 32.8445C43.0858 32.4975 42.0956 32.3217 41.0363 32.3217C40.6203 32.3217 40.2179 32.4893 39.441 32.9858C38.9628 33.2919 38.4034 33.6459 37.7791 34.0374C37.2453 34.3713 36.5221 34.6841 35.6288 34.9673C34.7573 35.2441 33.8724 35.3845 32.9991 35.3845C32.1257 35.3845 31.2411 35.2441 30.3687 34.9673C29.4764 34.6844 28.7532 34.3716 28.22 34.0377C27.6016 33.6499 27.0419 33.2959 26.5566 32.9855C25.7805 32.489 25.3779 32.3214 24.9619 32.3214C23.9023 32.3214 22.9123 32.4975 22.019 32.8448C21.123 33.193 20.3472 33.6712 19.7133 34.2666C19.1079 34.8355 18.5679 35.5261 18.1089 36.3192C17.6665 37.0837 17.3083 37.8811 17.0447 38.6895C16.79 39.471 16.5771 40.3258 16.4117 41.2304C16.2478 42.127 16.1365 42.9775 16.0815 43.7587C16.0274 44.5241 16 45.3185 16 46.1208C16 48.2088 16.6762 49.8991 18.0098 51.1458C19.3268 52.3759 21.0695 53 23.1887 53H42.8113C44.9305 53 46.6726 52.3762 47.9899 51.1458C49.3238 49.9 50 48.2094 50 46.1205C49.9997 45.3145 49.972 44.5195 49.9176 43.7578Z"
    fill="#17191A"
  />
</svg>
