<svg width="65" height="65" viewBox="0 0 65 65" fill="none" xmlns="http://www.w3.org/2000/svg">
<rect width="65" height="65" rx="10" fill="#AFB1B3"/>
<path d="M37.411 39.9373H28.589C27.924 39.9373 27.3832 40.5632 27.3832 41.3326V44.4638C27.3832 45.2333 27.924 45.8592 28.589 45.8592H37.4111C38.076 45.8592 38.6169 45.2334 38.6169 44.4638V41.3326C38.6168 40.5633 38.0759 39.9373 37.411 39.9373ZM37.0665 44.0652H28.9334V41.7314H37.0665V44.0652Z" fill="#3B3C3D"/>
<path d="M52.6075 32.1825L52.6199 32.1753L46.807 18.876C46.3371 17.801 45.3988 17.1333 44.3581 17.1333H43.2534V15.897C43.2534 15.4016 42.9063 15 42.4782 15H23.5219C23.0937 15 22.7467 15.4016 22.7467 15.897V17.1333H21.642C20.6012 17.1333 19.663 17.801 19.193 18.876L13.3801 32.1753L13.3925 32.1825C13.1435 32.657 13 33.2136 13 33.8081V47.8582C13 49.5906 14.218 51 15.715 51H50.2851C51.7821 51 53 49.5905 53 47.8582V33.8081C53 33.2136 52.8565 32.657 52.6075 32.1825ZM43.2533 19.1267H44.358C44.7455 19.1267 45.0948 19.3755 45.2698 19.7758L50.03 30.6664H46.7932V27.3154C46.7932 26.82 46.4462 26.4184 46.018 26.4184H45.0591V21.6063C45.0591 21.1108 44.712 20.7092 44.2839 20.7092H43.2533V19.1267ZM45.243 28.2123V30.6664H41.1524C40.4505 30.6664 39.8107 31.1449 39.5223 31.8852L38.4055 34.7521C38.3948 34.7791 38.3715 34.7966 38.3458 34.7966H27.6543C27.6286 34.7966 27.6052 34.7791 27.5946 34.752L26.4778 31.8853C26.1894 31.1449 25.5495 30.6664 24.8477 30.6664H20.7571V28.2123H45.243ZM24.297 16.794H41.703V20.7091H24.297V16.794ZM43.5087 22.5032V26.4183H22.4913V22.5032H43.5087ZM20.7302 19.7758C20.9052 19.3754 21.2545 19.1267 21.642 19.1267H22.7467V20.7091H21.7161C21.288 20.7091 20.9409 21.1107 20.9409 21.6062V26.4183H19.982C19.5538 26.4183 19.2068 26.8199 19.2068 27.3153V30.6664H15.97L20.7302 19.7758ZM50.2851 49.0065H15.715C15.1678 49.0065 14.7226 48.4913 14.7226 47.8582V33.8081C14.7226 33.175 15.1677 32.6598 15.715 32.6598H24.8477C24.8733 32.6598 24.8968 32.6774 24.9074 32.7046L26.0242 35.5712C26.3127 36.3117 26.9524 36.79 27.6543 36.79H38.3457C39.0476 36.79 39.6874 36.3116 39.9758 35.5713L41.0927 32.7046V32.7045C41.1033 32.6774 41.1266 32.6598 41.1523 32.6598H50.285C50.8322 32.6598 51.2773 33.1751 51.2773 33.8081V47.8582H51.2773C51.2774 48.4915 50.8323 49.0065 50.2851 49.0065Z" fill="#3B3C3D"/>
</svg>
