<svg
  width="65"
  height="65"
  viewBox="0 0 65 65"
  fill="none"
  xmlns="http://www.w3.org/2000/svg"
>
<rect width="65" height="65" rx="10" fill="#AFB1B3" />
<path
    d="M40.8759 38.7812L39.5805 42.6675C39.4209 43.146 38.9731 43.4688 38.4688 43.4688H27.5312C27.0269 43.4688 26.5791 43.146 26.4195 42.6675L25.1241 38.7812H13V51.8281C13 52.4753 13.5247 53 14.1719 53H51.8281C52.4753 53 53 52.4753 53 51.8281V38.7812H40.8759ZM38.4688 49.3281H27.5312C26.8841 49.3281 26.3594 48.8034 26.3594 48.1562C26.3594 47.5091 26.8841 46.9844 27.5312 46.9844H38.4688C39.1159 46.9844 39.6406 47.5091 39.6406 48.1562C39.6406 48.8034 39.1159 49.3281 38.4688 49.3281Z"
    fill="#17191A"
  />
<path
    d="M27.3475 38.0401L28.3759 41.125H37.6241L38.6524 38.0401C38.9714 37.083 39.8671 36.4375 40.8759 36.4375H45.4999V30.1875H20.4999V36.4375H25.124C26.1329 36.4375 27.0285 37.083 27.3475 38.0401Z"
    fill="#17191A"
  />
<path d="M22.8437 21.5938H43.1562V27.8438H22.8437V21.5938Z" fill="#17191A" />
<path
    d="M48.2033 17.0292C48.079 16.4995 47.6065 16.125 47.0624 16.125H43.1561V19.25C44.4505 19.25 45.4999 20.2994 45.4999 21.5938V27.8438C46.7943 27.8438 47.8436 28.8931 47.8436 30.1875V36.4375H52.7568L48.2033 17.0292Z"
    fill="#17191A"
  />
<path
    d="M20.4999 27.8438V21.5938C20.4999 20.2994 21.5493 19.25 22.8437 19.25V16.125H18.9374C18.3933 16.125 17.9208 16.4995 17.7965 17.0292L13.243 36.4375H18.1562V30.1875C18.1562 28.8931 19.2055 27.8438 20.4999 27.8438Z"
    fill="#17191A"
  />
<path
    d="M39.6406 13H26.3593C25.7121 13 25.1874 13.5247 25.1874 14.1719V19.25H40.8124V14.1719C40.8124 13.5247 40.2878 13 39.6406 13Z"
    fill="#17191A"
  />
</svg>
