<svg width="65" height="65" viewBox="0 0 65 65" fill="none" xmlns="http://www.w3.org/2000/svg">
<rect width="65" height="65" rx="10" fill="#AFB1B3"/>
<path d="M50.805 28.6567L47.6717 28.2583C47.4133 27.4633 47.095 26.6967 46.7233 25.9683L48.6583 23.4767C49.4417 22.4683 49.35 21.045 48.455 20.1783L45.83 17.5533C44.955 16.65 43.5317 16.56 42.5217 17.3417L40.0333 19.2767C39.305 18.905 38.5383 18.5867 37.7417 18.3283L37.3433 15.2C37.1933 13.945 36.1283 13 34.8667 13H31.1333C29.8717 13 28.8067 13.945 28.6567 15.195L28.2583 18.3283C27.4617 18.5867 26.695 18.9033 25.9667 19.2767L23.4767 17.3417C22.47 16.56 21.0467 16.65 20.1783 17.545L17.5533 20.1683C16.65 21.045 16.5583 22.4683 17.3417 23.4783L19.2767 25.9683C18.9033 26.6967 18.5867 27.4633 18.3283 28.2583L15.2 28.6567C13.945 28.8067 13 29.8717 13 31.1333V34.8667C13 36.1283 13.945 37.1933 15.195 37.3433L18.3283 37.7417C18.5867 38.5367 18.905 39.3033 19.2767 40.0317L17.3417 42.5233C16.5583 43.5317 16.65 44.955 17.545 45.8217L20.17 48.4467C21.0467 49.3483 22.4683 49.4383 23.4783 48.6567L25.9683 46.7217C26.6967 47.095 27.4633 47.4133 28.2583 47.67L28.6567 50.7967C28.8067 52.055 29.8717 53 31.1333 53H34.8667C36.1283 53 37.1933 52.055 37.3433 50.805L37.7417 47.6717C38.5367 47.4133 39.3033 47.095 40.0317 46.7233L42.5233 48.6583C43.5317 49.4417 44.955 49.35 45.8217 48.455L48.4467 45.83C49.35 44.9533 49.4417 43.5317 48.6583 42.5217L46.7233 40.0317C47.0967 39.3033 47.415 38.5367 47.6717 37.7417L50.7983 37.3433C52.0533 37.1933 52.9983 36.1283 52.9983 34.8667V31.1333C53 29.8717 52.055 28.8067 50.805 28.6567ZM33 41.3333C28.405 41.3333 24.6667 37.595 24.6667 33C24.6667 28.405 28.405 24.6667 33 24.6667C37.595 24.6667 41.3333 28.405 41.3333 33C41.3333 37.595 37.595 41.3333 33 41.3333Z" fill="#17191A"/>
</svg>
