<svg
  width="65"
  height="65"
  viewBox="0 0 65 65"
  fill="none"
  xmlns="http://www.w3.org/2000/svg"
>
<rect width="65" height="65" rx="10" fill="#AFB1B3" />
<path
    d="M34.2552 53H31.7448C29.7144 53 28.0624 51.3481 28.0624 49.3177V48.4684C27.1992 48.1927 26.3605 47.8445 25.5548 47.4276L24.953 48.0295C23.4952 49.489 21.1602 49.4462 19.7448 48.0289L17.9705 46.2547C16.5526 44.8384 16.5118 42.5041 17.9709 41.0465L18.5723 40.4451C18.1554 39.6394 17.8073 38.8009 17.5315 37.9375H16.6823C14.652 37.9375 13 36.2856 13 34.2552V31.7448C13 29.7144 14.652 28.0625 16.6823 28.0625H17.5316C17.8074 27.1992 18.1555 26.3606 18.5724 25.5549L17.9705 24.9531C16.5123 23.4964 16.5525 21.1619 17.971 19.7449L19.7455 17.9705C21.1641 16.5499 23.4987 16.5145 24.9536 17.971L25.5549 18.5723C26.3606 18.1555 27.1993 17.8073 28.0625 17.5315V16.6823C28.0625 14.6519 29.7144 13 31.7448 13H34.2552C36.2856 13 37.9375 14.6519 37.9375 16.6823V17.5316C38.8007 17.8073 39.6394 18.1555 40.4451 18.5724L41.047 17.9705C42.5047 16.511 44.8398 16.5538 46.2552 17.9711L48.0295 19.7453C49.4473 21.1616 49.4881 23.4959 48.029 24.9535L47.4276 25.5549C47.8445 26.3606 48.1926 27.1991 48.4684 28.0625H49.3177C51.348 28.0625 53 29.7144 53 31.7448V34.2552C53 36.2856 51.348 37.9375 49.3177 37.9375H48.4684C48.1926 38.8008 47.8445 39.6394 47.4276 40.4451L48.0295 41.047C49.4877 42.5037 49.4475 44.8382 48.029 46.2552L46.2545 48.0295C44.8359 49.4502 42.5013 49.4856 41.0464 48.0291L40.4451 47.4277C39.6394 47.8446 38.8007 48.1927 37.9375 48.4686V49.3179C37.9375 51.3481 36.2856 53 34.2552 53ZM25.9466 44.9664C27.0659 45.6284 28.2706 46.1284 29.5272 46.4527C30.0447 46.5863 30.4062 47.053 30.4062 47.5874V49.3177C30.4062 50.0558 31.0068 50.6562 31.7448 50.6562H34.2552C34.9933 50.6562 35.5938 50.0558 35.5938 49.3177V47.5874C35.5938 47.053 35.9554 46.5863 36.4729 46.4527C37.7295 46.1284 38.9341 45.6284 40.0534 44.9664C40.514 44.6941 41.1003 44.7681 41.4787 45.1465L42.7043 46.3722C43.2327 46.9012 44.0813 46.889 44.5968 46.3727L46.3723 44.5973C46.8866 44.0837 46.9038 43.2349 46.3728 42.7047L45.1466 41.4785C44.7684 41.1002 44.6943 40.5138 44.9666 40.0534C45.6285 38.9341 46.1285 37.7295 46.4528 36.4728C46.5864 35.9553 47.0531 35.5938 47.5875 35.5938H49.3177C50.0558 35.5938 50.6563 34.9934 50.6563 34.2553V31.7448C50.6563 31.0068 50.0558 30.4063 49.3177 30.4063H47.5875C47.053 30.4063 46.5864 30.0448 46.4528 29.5273C46.1285 28.2707 45.6284 27.066 44.9666 25.9468C44.6943 25.4863 44.7684 24.8999 45.1466 24.5216L46.3723 23.2959C46.9022 22.7667 46.8884 21.9183 46.3728 21.4034L44.5974 19.628C44.0828 19.1127 43.2341 19.0976 42.7048 19.6275L41.4788 20.8537C41.1005 21.232 40.5139 21.3061 40.0535 21.0338C38.9342 20.3718 37.7295 19.8717 36.473 19.5474C35.9555 19.4139 35.5939 18.9472 35.5939 18.4127V16.6823C35.5939 15.9442 34.9934 15.3438 34.2553 15.3438H31.7449C31.0069 15.3438 30.4063 15.9442 30.4063 16.6823V18.4126C30.4063 18.947 30.0448 19.4138 29.5273 19.5473C28.2707 19.8716 27.066 20.3716 25.9467 21.0336C25.4861 21.3059 24.8998 21.2318 24.5215 20.8535L23.2959 19.6278C22.7674 19.0988 21.9188 19.111 21.4034 19.6273L19.6278 21.4027C19.1136 21.9163 19.0964 22.765 19.6273 23.2953L20.8535 24.5215C21.2318 24.8998 21.3059 25.4862 21.0336 25.9466C20.3716 27.0659 19.8716 28.2705 19.5473 29.5272C19.4138 30.0447 18.947 30.4062 18.4127 30.4062H16.6823C15.9443 30.4062 15.3438 31.0067 15.3438 31.7448V34.2552C15.3438 34.9933 15.9443 35.5938 16.6823 35.5938H18.4126C18.947 35.5938 19.4137 35.9553 19.5473 36.4727C19.8716 37.7294 20.3716 38.9341 21.0335 40.0533C21.3058 40.5138 21.2317 41.1002 20.8534 41.4784L19.6277 42.7041C19.0979 43.2334 19.1117 44.0818 19.6273 44.5967L21.4027 46.3721C21.9173 46.8874 22.766 46.9025 23.2952 46.3726L24.5213 45.1464C24.8001 44.8677 25.38 44.6313 25.9466 44.9664Z"
    fill="#3B3C3D"
  />
<path
    d="M33 41.7031C28.201 41.7031 24.2969 37.7989 24.2969 33C24.2969 28.2011 28.201 24.2969 33 24.2969C37.799 24.2969 41.7031 28.2011 41.7031 33C41.7031 37.7989 37.799 41.7031 33 41.7031ZM33 26.6406C29.4934 26.6406 26.6406 29.4934 26.6406 33C26.6406 36.5066 29.4934 39.3594 33 39.3594C36.5066 39.3594 39.3594 36.5066 39.3594 33C39.3594 29.4934 36.5066 26.6406 33 26.6406Z"
    fill="#3B3C3D"
  />
</svg>
