<svg width="65" height="65" viewBox="0 0 65 65" fill="none" xmlns="http://www.w3.org/2000/svg">
<rect width="65" height="65" rx="10" fill="#AFB1B3"/>
<path d="M46.4778 51L36.0091 42.1382H21.6084C16.8623 42.1382 13 38.0669 13 33.0636V24.0746C13 19.0714 16.8623 15 21.6084 15H44.3916C49.1377 15 53 19.0714 53 24.0746V33.0636C53 37.2735 50.2644 40.87 46.4778 41.8649V51ZM21.6084 17.5792C18.2405 17.5792 15.5 20.4932 15.5 24.0747V33.0637C15.5 36.6451 18.2405 39.5592 21.6084 39.5592H36.9026L43.9778 45.5472V39.6486L45.0813 39.5138C48.1709 39.1386 50.5 36.3655 50.5 33.0637V24.0746C50.5 20.4931 47.7595 17.5791 44.3916 17.5791H21.6084V17.5792Z" fill="#3B3C3D"/>
<path d="M20.1252 30.0966C20.5707 30.3762 21.4948 30.7049 22.2114 30.7049C22.9438 30.7049 23.2466 30.4418 23.2466 30.0312C23.2466 29.6194 23.0073 29.4229 22.1004 29.1107C20.4915 28.5516 19.8702 27.6486 19.886 26.6953C19.886 25.2005 21.1287 24.0671 23.055 24.0671C23.9631 24.0671 24.7762 24.2799 25.2534 24.5268L24.8237 26.252C24.4734 26.0543 23.8045 25.7911 23.1355 25.7911C22.5458 25.7911 22.2114 26.0379 22.2114 26.4485C22.2114 26.8263 22.5141 27.024 23.4699 27.369C24.9507 27.8942 25.572 28.6674 25.5879 29.8499C25.5879 31.3447 24.4416 32.4453 22.2114 32.4453C21.1921 32.4453 20.2839 32.2161 19.6956 31.8875L20.1252 30.0966Z" fill="#3B3C3D"/>
<path d="M27.0515 26.8099C27.0515 25.8088 27.0198 24.9537 26.988 24.2472H29.0266L29.1378 25.3315H29.1853C29.5198 24.8227 30.2046 24.0671 31.5425 24.0671C32.5459 24.0671 33.3418 24.5923 33.6763 25.4297H33.708C33.9949 25.0192 34.3453 24.6905 34.7115 24.4613C35.1424 24.1982 35.6196 24.0672 36.1934 24.0672C37.69 24.0672 38.8216 25.1515 38.8216 27.5492V32.2818H36.4644V27.9118C36.4644 26.7444 36.097 26.0707 35.317 26.0707C34.7604 26.0707 34.3612 26.4648 34.2025 26.9421C34.139 27.1222 34.1073 27.3854 34.1073 27.5831V32.2816H31.7502V27.7796C31.7502 26.7607 31.3998 26.0707 30.6344 26.0707C30.0143 26.0707 29.6468 26.5644 29.504 26.9749C29.4247 27.1714 29.4089 27.4018 29.4089 27.5995V32.2817H27.0517V26.8099H27.0515Z" fill="#3B3C3D"/>
<path d="M40.7295 30.0966C41.1751 30.3762 42.0992 30.7049 42.8157 30.7049C43.5481 30.7049 43.8509 30.4418 43.8509 30.0312C43.8509 29.6194 43.6116 29.4229 42.7046 29.1107C41.0957 28.5516 40.4744 27.6486 40.4903 26.6953C40.4903 25.2005 41.7329 24.0671 43.6592 24.0671C44.5674 24.0671 45.3792 24.2799 45.8577 24.5268L45.428 26.252C45.0776 26.0543 44.4087 25.7911 43.7397 25.7911C43.1501 25.7911 42.8156 26.0379 42.8156 26.4485C42.8156 26.8263 43.1183 27.024 44.0742 27.369C45.5549 27.8942 46.1762 28.6674 46.1921 29.8499C46.1921 31.3447 45.0459 32.4453 42.8156 32.4453C41.7964 32.4453 40.8881 32.2161 40.2998 31.8875L40.7295 30.0966Z" fill="#3B3C3D"/>
</svg>
