<svg
  width="65"
  height="65"
  viewBox="0 0 65 65"
  fill="none"
  xmlns="http://www.w3.org/2000/svg"
>
<rect width="65" height="65" rx="10" fill="#AFB1B3" />
<path
    d="M44.3916 15H21.6084C16.8623 15 13 19.0714 13 24.0746V33.0636C13 38.0669 16.8623 42.1382 21.6084 42.1382H36.0091L46.4778 51V41.8649C50.2644 40.8701 53 37.2735 53 33.0636V24.0746C53 19.0714 49.1377 15 44.3916 15ZM22.2114 32.4453C21.1922 32.4453 20.2839 32.216 19.6956 31.8874L20.1253 30.0967C20.5709 30.3763 21.4949 30.705 22.2115 30.705C22.9439 30.705 23.2467 30.4418 23.2467 30.0313C23.2467 29.6195 23.0074 29.423 22.1005 29.1107C20.4916 28.5516 19.8703 27.6487 19.8861 26.6954C19.8861 25.2006 21.1288 24.0672 23.0551 24.0672C23.9633 24.0672 24.7763 24.28 25.2536 24.5268L24.8238 26.2521C24.4735 26.0543 23.8046 25.7912 23.1356 25.7912C22.546 25.7912 22.2115 26.038 22.2115 26.4485C22.2115 26.8263 22.5142 27.0241 23.47 27.3691C24.9508 27.8942 25.5721 28.6674 25.588 29.85C25.5879 31.3447 24.4416 32.4453 22.2114 32.4453ZM38.8216 32.2816H36.4644V27.9118C36.4644 26.7444 36.097 26.0707 35.317 26.0707C34.7603 26.0707 34.3611 26.4648 34.2024 26.9421C34.1389 27.1222 34.1073 27.3854 34.1073 27.5831V32.2816H31.7501V27.7795C31.7501 26.7607 31.3998 26.0707 30.6344 26.0707C30.0143 26.0707 29.6468 26.5643 29.504 26.9749C29.4247 27.1713 29.4088 27.4018 29.4088 27.5995V32.2817H27.0517V26.81C27.0517 25.8088 27.0199 24.9537 26.9882 24.2473H29.0268L29.1379 25.3315H29.1855C29.5199 24.8228 30.2047 24.0672 31.5426 24.0672C32.546 24.0672 33.342 24.5924 33.6764 25.4298H33.7082C33.995 25.0192 34.3454 24.6906 34.7116 24.4614C35.1425 24.1982 35.6198 24.0673 36.1936 24.0673C37.6901 24.0673 38.8217 25.1515 38.8217 27.5493V32.2816H38.8216ZM42.8157 32.4453C41.7964 32.4453 40.8882 32.216 40.2998 31.8874L40.7296 30.0967C41.1751 30.3763 42.0992 30.705 42.8158 30.705C43.5482 30.705 43.8509 30.4418 43.8509 30.0313C43.8509 29.6195 43.6117 29.423 42.7047 29.1107C41.0958 28.5516 40.4744 27.6487 40.4903 26.6954C40.4903 25.2006 41.733 24.0672 43.6593 24.0672C44.5674 24.0672 45.3793 24.28 45.8577 24.5268L45.428 26.2521C45.0776 26.0543 44.4087 25.7912 43.7398 25.7912C43.1501 25.7912 42.8157 26.038 42.8157 26.4485C42.8157 26.8263 43.1184 27.0241 44.0742 27.3691C45.5549 27.8942 46.1762 28.6674 46.1922 29.85C46.1922 31.3447 45.0459 32.4453 42.8157 32.4453Z"
    fill="#17191A"
  />
</svg>
